# xmcd CD database file
#
# Track frame offsets:
#	150
#	8104
#	23310
#	40265
#	60319
#	86136
#	110251
#	123032
#	137189
#	154763
#	190161
#	213971
#	256508
#	276539
#
# Disc length: 4290 seconds
#
# Revision: 4
# Processed by: cddbd v1.5.2PL0 Copyright (c) Steve Scherf et al.
# Submitted via: CDex 1.50
#
DISCID=ae10c00e
DTITLE=Michel Jonasz - Olympia 2000
DYEAR=1900
DGENRE=Jazz
TTITLE0=(prologue)
TTITLE1=Inspiration
TTITLE2=Les vacances au bord de la mer
TTITLE3=Le millénaire
TTITLE4=L'amour ça devient sérieux
TTITLE5=Super nana
TTITLE6=En v'la du slows en v'la
TTITLE7=Le bolero
TTITLE8=Taj Mahal (prologue)
TTITLE9=Taj Mahal
TTITLE10=La bossa
TTITLE11=Groove baby groove
TTITLE12=Le scat
TTITLE13=Joueur de blues
EXTD=
EXTT0=
EXTT1=
EXTT2=
EXTT3=
EXTT4=
EXTT5=
EXTT6=
EXTT7=
EXTT8=
EXTT9=
EXTT10=
EXTT11=
EXTT12=
EXTT13=
PLAYORDER=
